TITLE ""
FILE "Disc4Track05.mp3" MP3
  TRACK 01 AUDIO
    TITLE "Disc4Track05_01"
    INDEX 01 00:00:00
  TRACK 02 AUDIO
    TITLE "Disc4Track05_02"
    INDEX 01 00:01:16
  TRACK 03 AUDIO
    TITLE "Disc4Track05_03"
    INDEX 01 00:02:17
  TRACK 04 AUDIO
    TITLE "Disc4Track05_04"
    INDEX 01 00:03:42
  TRACK 05 AUDIO
    TITLE "Disc4Track05_05"
    INDEX 01 00:07:71
  TRACK 06 AUDIO
    TITLE "Disc4Track05_06"
    INDEX 01 00:08:27
  TRACK 07 AUDIO
    TITLE "Disc4Track05_07"
    INDEX 01 00:09:68
  TRACK 08 AUDIO
    TITLE "Disc4Track05_08"
    INDEX 01 00:11:26
  TRACK 09 AUDIO
    TITLE "Disc4Track05_09"
    INDEX 01 00:12:68
  TRACK 10 AUDIO
    TITLE "Disc4Track05_10"
    INDEX 01 00:13:31
  TRACK 11 AUDIO
    TITLE "Disc4Track05_11"
    INDEX 01 00:14:61
  TRACK 12 AUDIO
    TITLE "Disc4Track05_12"
    INDEX 01 00:17:11
  TRACK 13 AUDIO
    TITLE "Disc4Track05_13"
    INDEX 01 00:18:43
  TRACK 14 AUDIO
    TITLE "Disc4Track05_14"
    INDEX 01 00:19:08
  TRACK 15 AUDIO
    TITLE "Disc4Track05_15"
    INDEX 01 00:20:48
  TRACK 16 AUDIO
    TITLE "Disc4Track05_16"
    INDEX 01 00:22:06
  TRACK 17 AUDIO
    TITLE "Disc4Track05_17"
    INDEX 01 00:23:45
  TRACK 18 AUDIO
    TITLE "Disc4Track05_18"
    INDEX 01 00:26:18
  TRACK 19 AUDIO
    TITLE "Disc4Track05_19"
    INDEX 01 00:26:53
  TRACK 20 AUDIO
    TITLE "Disc4Track05_20"
    INDEX 01 00:28:26
  TRACK 21 AUDIO
    TITLE "Disc4Track05_21"
    INDEX 01 00:29:63
  TRACK 22 AUDIO
    TITLE "Disc4Track05_22"
    INDEX 01 00:31:36
  TRACK 23 AUDIO
    TITLE "Disc4Track05_23"
    INDEX 01 00:35:20
  TRACK 24 AUDIO
    TITLE "Disc4Track05_24"
    INDEX 01 00:35:52
  TRACK 25 AUDIO
    TITLE "Disc4Track05_25"
    INDEX 01 00:37:23
  TRACK 26 AUDIO
    TITLE "Disc4Track05_26"
    INDEX 01 00:39:53
  TRACK 27 AUDIO
    TITLE "Disc4Track05_27"
    INDEX 01 00:41:21
  TRACK 28 AUDIO
    TITLE "Disc4Track05_28"
    INDEX 01 00:43:45
  TRACK 29 AUDIO
    TITLE "Disc4Track05_29"
    INDEX 01 00:44:06
  TRACK 30 AUDIO
    TITLE "Disc4Track05_30"
    INDEX 01 00:45:36
  TRACK 31 AUDIO
    TITLE "Disc4Track05_31"
    INDEX 01 00:47:53
  TRACK 32 AUDIO
    TITLE "Disc4Track05_32"
    INDEX 01 00:49:09
  TRACK 33 AUDIO
    TITLE "Disc4Track05_33"
    INDEX 01 00:51:53
  TRACK 34 AUDIO
    TITLE "Disc4Track05_34"
    INDEX 01 00:52:09
  TRACK 35 AUDIO
    TITLE "Disc4Track05_35"
    INDEX 01 00:53:52
  TRACK 36 AUDIO
    TITLE "Disc4Track05_36"
    INDEX 01 00:55:64
  TRACK 37 AUDIO
    TITLE "Disc4Track05_37"
    INDEX 01 00:57:32
  TRACK 38 AUDIO
    TITLE "Disc4Track05_38"
    INDEX 01 01:00:26
  TRACK 39 AUDIO
    TITLE "Disc4Track05_39"
    INDEX 01 01:00:60
  TRACK 40 AUDIO
    TITLE "Disc4Track05_40"
    INDEX 01 01:01:73
  TRACK 41 AUDIO
    TITLE "Disc4Track05_41"
    INDEX 01 01:02:70
  TRACK 42 AUDIO
    TITLE "Disc4Track05_42"
    INDEX 01 01:04:12
  TRACK 43 AUDIO
    TITLE "Disc4Track05_43"
    INDEX 01 01:04:53
  TRACK 44 AUDIO
    TITLE "Disc4Track05_44"
    INDEX 01 01:07:16
  TRACK 45 AUDIO
    TITLE "Disc4Track05_45"
    INDEX 01 01:09:08
  TRACK 46 AUDIO
    TITLE "Disc4Track05_46"
    INDEX 01 01:11:44
  TRACK 47 AUDIO
    TITLE "Disc4Track05_47"
    INDEX 01 01:14:60
  TRACK 48 AUDIO
    TITLE "Disc4Track05_48"
    INDEX 01 01:15:16
  TRACK 49 AUDIO
    TITLE "Disc4Track05_49"
    INDEX 01 01:16:47
  TRACK 50 AUDIO
    TITLE "Disc4Track05_50"
    INDEX 01 01:19:49
  TRACK 51 AUDIO
    TITLE "Disc4Track05_51"
    INDEX 01 01:21:05
  TRACK 52 AUDIO
    TITLE "Disc4Track05_52"
    INDEX 01 01:23:43
  TRACK 53 AUDIO
    TITLE "Disc4Track05_53"
    INDEX 01 01:24:03
  TRACK 54 AUDIO
    TITLE "Disc4Track05_54"
    INDEX 01 01:25:16
  TRACK 55 AUDIO
    TITLE "Disc4Track05_55"
    INDEX 01 01:28:60
  TRACK 56 AUDIO
    TITLE "Disc4Track05_56"
    INDEX 01 01:29:71
  TRACK 57 AUDIO
    TITLE "Disc4Track05_57"
    INDEX 01 01:32:26
